General

Format                           : MPEG-4
Format profile                   : Base Media
Codec ID                         : isom
File size                        : 63.4 MiB
Duration                         : 4mn 52s
Overall bit rate                 : 1 820 Kbps
Encoded date                     : UTC 2012-04-09 05:09:52
Tagged date                      : UTC 2012-04-09 05:09:52

Video
ID                               : 1
Format                           : AVC
Format/Info                      : Advanced Video Codec
Format profile                   : High@L3.0
Format settings, CABAC           : Yes
Format settings, ReFrames        : 2 frames
Codec ID                         : avc1
Codec ID/Info                    : Advanced Video Coding
Duration                         : 4mn 52s
Bit rate mode                    : Variable
Bit rate                         : 1 674 Kbps
Maximum bit rate                 : 8 158 Kbps
Width                            : 720 pixels
Height                           : 480 pixels
Display aspect ratio             : 16:9
Original display aspect ratio    : 16:9
Frame rate mode                  : Constant
Frame rate                       : 25.000 fps
Standard                         : NTSC
Color space                      : YUV
Chroma subsampling               : 4:2:0
Bit depth                        : 8 bits
Scan type                        : Progressive
Bits/(Pixel*Frame)               : 0.194
Stream size                      : 60.5 MiB (95%)


Audio
ID                               : 2
Format                           : AAC
Format/Info                      : Advanced Audio Codec
Format profile                   : LC
Codec ID                         : 40
Duration                         : 4mn 52s
Bit rate mode                    : Variable
Bit rate                         : 75.8 Kbps
Maximum bit rate                 : 88.1 Kbps
Channel(s)                       : 2 channels
Channel positions                : Front: L R
Sampling rate                    : 44.1 KHz
Compression mode                 : Lossy
Stream size                      : 2.64 MiB (4%)